<svg width="340.16" height="141.73" xmlns="http://www.w3.org/2000/svg" xml:space="preserve" enable-background="new 0 0 340.16 141.73" version="1.1">
 <defs>
  <linearGradient y2="0.49998" x2="1" y1="0.49998" x1="-0.00001" id="SVGID_1_">
   <stop stop-color="#FFFFFF" offset="0"/>
   <stop stop-color="#000000" offset="1"/>
  </linearGradient>
  <linearGradient y2="0.49998" x2="1" y1="0.49998" x1="0" id="SVGID_2_">
   <stop stop-color="#FFFFFF" offset="0"/>
   <stop stop-color="#000000" offset="1"/>
  </linearGradient>
 </defs>
 <g>
  <title>Layer 1</title>
  <g id="svg_1">
   <path id="svg_2" d="m80.675,51.456c2.235,3.217 -0.708,-11.978 -1.837,-15.943c-1.318,-4.633 -3.445,-8.88 -6.132,-12.697c-5.993,-8.519 -14.768,-14.913 -23.316,-18.778l-1.718,-0.776c-0.351,-0.159 -0.722,-0.141 -1.054,0.051c-0.332,0.19 -0.535,0.502 -0.574,0.884l-0.193,1.873c-0.611,5.915 0.273,12.438 2.793,18.123c0.688,1.551 1.49,3.043 2.426,4.438c3.56,5.313 8.891,9.292 16.152,10.383c0.436,0.064 0.783,-0.147 1.049,-0.505c-5.02,-1.132 -8.77,-4.085 -11.345,-7.927c-1.621,-2.42 -5.884,-10.297 -6.114,-18.174c-0.013,-0.442 0.164,-0.838 0.537,-1.073c0.375,-0.235 0.818,-0.241 1.2,-0.019c6.024,3.521 11.473,8.625 16.033,14.4c3.212,4.068 7.769,17.81 8.173,21.296c0.048,0.41 -0.108,0.785 -0.432,1.041c-0.325,0.256 -0.727,0.32 -1.114,0.179c-6.349,-2.318 -12.178,-2.727 -17.336,-2.018c-1.379,0.191 22.802,5.242 22.802,5.242z" fill="url(#SVGID_1_)"/>
   <path id="svg_3" d="m77.702,51.156c2.229,3.285 -0.68,-12.251 -1.8,-16.306c-1.308,-4.736 -3.425,-9.075 -6.103,-12.974c-5.975,-8.699 -14.736,-15.22 -23.278,-19.153l-1.716,-0.79c-0.351,-0.162 -0.722,-0.143 -1.055,0.054c-0.332,0.196 -0.536,0.516 -0.576,0.906l-0.196,1.917c-0.626,6.053 0.244,12.724 2.75,18.532c0.685,1.586 1.483,3.11 2.416,4.535c3.548,5.427 8.871,9.484 16.132,10.583c0.436,0.065 0.784,-0.152 1.05,-0.52c-5.018,-1.146 -8.762,-4.157 -11.328,-8.081c-1.616,-2.472 -5.861,-10.52 -6.073,-18.576c-0.011,-0.453 0.167,-0.857 0.54,-1.1c0.376,-0.241 0.819,-0.249 1.201,-0.022c6.018,3.589 11.454,8.796 16.003,14.693c3.202,4.154 7.728,18.2 8.124,21.766c0.047,0.42 -0.11,0.804 -0.435,1.066c-0.325,0.262 -0.728,0.329 -1.114,0.186c-6.345,-2.357 -12.175,-2.762 -17.336,-2.023c-1.381,0.196 22.794,5.307 22.794,5.307z"/>
   <path id="svg_5" d="m92.686,52.708c-1.963,0.779 -3.95,1.64 -5.963,2.513c-2.106,0.914 -4.236,1.837 -6.396,2.71c2.256,-0.89 4.479,-1.854 6.674,-2.805c1.912,-0.831 3.806,-1.65 5.685,-2.418z"/>
   <path id="svg_6" d="m25.47,48.824c2.078,-1.2 4.294,-2.318 6.658,-3.301c-2.382,0.964 -4.606,2.081 -6.658,3.301z"/>
   <path id="svg_7" d="m32.196,45.497c0.559,-0.23 1.133,-0.443 1.706,-0.658c-0.58,0.206 -1.143,0.432 -1.706,0.658z"/>
   <path id="svg_8" d="m132.712,75.074c-0.062,-0.111 -0.119,-0.223 -0.182,-0.334c0.042,0.111 0.078,0.223 0.12,0.334l0.062,0z"/>
   <path id="svg_9" d="m74.025,53.687l3.147,1.242c0.603,0.237 1.233,0.16 1.759,-0.218c0.526,-0.379 0.802,-0.951 0.768,-1.598l-0.174,-3.382c-0.003,-0.055 -0.009,-0.107 -0.012,-0.162c-2.725,1.142 -5.494,2.221 -8.312,3.079c0.933,0.323 1.871,0.663 2.824,1.039z"/>
   <path id="svg_10" d="m32.128,45.523c0.023,-0.009 0.047,-0.017 0.068,-0.026c-0.021,0.009 -0.045,0.017 -0.068,0.026z"/>
   <path id="svg_11" d="m38.529,43.447c-1.585,0.449 -3.143,0.859 -4.627,1.392c-0.573,0.215 -1.147,0.428 -1.706,0.658c-0.021,0.01 -0.045,0.018 -0.068,0.026c-2.364,0.982 -4.58,2.101 -6.658,3.301c-6.168,3.663 -10.834,8.197 -13.877,11.908c-3.244,3.955 -5.632,8.853 -7.258,14.342c-0.172,0.584 -0.344,1.168 -0.5,1.766c-3.535,13.566 -2.602,30.224 1.671,45.549c1.92,6.885 4.512,13.463 7.658,19.342c-1.624,-3.854 -3.036,-7.898 -4.196,-12.061c-4.273,-15.324 -5.206,-31.984 -1.672,-45.551c0.84,-3.223 1.938,-6.256 3.295,-9.045c1.258,-2.584 2.737,-4.958 4.463,-7.063c4.915,-5.992 14.052,-14.139 26.937,-17.284c8.188,-2.001 17.954,-1.967 29.211,1.922c2.818,-0.858 5.588,-1.938 8.312,-3.079c-0.546,-10.125 -31.172,-8.9 -40.985,-6.123z"/>
   <path id="svg_12" d="m42.69,60.572c19.132,10.289 35.417,3.891 50.585,-2.072c13.15,-5.168 25.31,-9.947 36.681,0.371c4.104,3.722 7.42,7.703 10.047,11.87c-2.907,-6.839 -7.43,-13.312 -13.867,-19.15c-9.448,-8.575 -19.443,-6.721 -30.1,-2.883c-2.072,0.769 -4.163,1.588 -6.272,2.418c-2.423,0.951 -4.876,1.915 -7.365,2.805c-11.904,4.358 -24.62,7.426 -38.921,1.538c-1.55,1.751 -2.456,4.206 -0.788,5.103z" fill="url(#SVGID_2_)"/>
   <path id="svg_13" d="m126.669,50.917c-14.178,-14.195 -28.108,-9.423 -42.13,-2.072c-1.612,0.846 -6.422,2.834 -4.837,2.214c0,0 -4.024,1.648 -7.501,2.59c-8.247,2.512 -16.914,3.125 -26.08,-2.198c-2.234,-1.298 -6.932,5.245 -4.243,6.841c1.409,0.836 2.799,1.552 4.175,2.177c12.962,5.888 24.484,2.82 35.273,-1.538c2.16,-0.873 4.29,-1.796 6.396,-2.71c2.013,-0.873 4,-1.733 5.963,-2.513c12.389,-5.067 24.134,-7.836 36.444,4.489c4.442,4.447 7.99,9.216 10.768,14.204c-3.02,-7.657 -7.667,-14.914 -14.228,-21.484z"/>
  </g>
 </g>
</svg>